<svg version="1" xmlns="http://www.w3.org/2000/svg" width="400" height="400" viewBox="0 0 300.000000 300.000000"><path d="M54.8 86.9c-3.8 2.2-5.7 9.4-2.9 11.1 1.2.7 1.2.9.2 1-.9 0-1 .4-.5 1.2.5.7.9 2.8.9 4.5 0 1.8.3 3.3.8 3.3s.4.6-.2 1.3c-.6.8-.8 1.7-.4 2.1.7.7 1.5 8.2 1.7 15.3.1 2.4.6 4.3 1.1 4.3.7 0 .7.3 0 .8-.5.4-1 2.5-1 4.7s.5 4.3 1 4.7c.6.5.5.8-.3.8-1.4 0-1.2 2.1.3 3.2.7.5.7.8 0 .8-.6 0-1 4-.9 10.3.1 5.6-.2 11.2-.7 12.4-.5 1.3-.4 2.5.2 2.9.7.4.6 1-.1 1.9-.7.8-.9 1.9-.5 2.6.4.6.1 1.5-.6 2-1.1.7-1.1.9-.1.9s1 .5.2 2c-.6 1.1-.7 2-.3 2 .4 0 .2.5-.5 1.2s-.8 1.7-.2 2.9c.6 1 .6 2 .1 2.3-.4.3-.8 2.8-.8 5.6s.2 4.9.4 4.6c.3-.2 1.8 1 3.4 2.6 1.7 1.8 2.9 2.5 2.9 1.7 0-1.1.2-1.1 1 .1.8 1.2 1 1.2 1 .1 0-.8.3-1.2.6-.9.7.8 5.6-4.1 7.3-7.5.8-1.5 1.8-2.7 2.3-2.7.4 0 .8-.6.8-1.3 0-.7.8-2.2 1.8-3.3 1-1 2.7-3.4 3.7-5.2 1.1-1.7 2.3-3.2 2.8-3.2.4 0 .6-.4.2-.9-.3-.6.1-1.3.8-1.8 3-1.7 6-11.3 3.6-11.3-.5 0-.9-.7-.9-1.6 0-.8-.4-1.2-1-.9-.5.3-1 .2-1-.4 0-1.6-4.3-2.3-7.3-1.2-2.4.9-2.7.8-2.7-1.2-.3-26-.1-32.2.8-32.5.6-.2 1.6.7 2.3 1.9 1.1 2.2 2.1 3.5 4.6 6.3.7.8.9 1.6.6 2-.4.3.1.6 1 .6.8 0 1.8.8 2.1 1.8.3 1 2.2 3.5 4.1 5.5 1.9 2 3.3 3.7 3 3.7-.3 0 .4 1.1 1.7 2.3 1.3 1.3 3.9 4.2 5.9 6.3 3.8 4.2 10.3 10 13.9 12.4 1.2.8 2.8 2.1 3.6 2.7.7.7 1.6 1.3 2 1.3.4 0 1.3.8 2.1 1.7.8 1 1.1 1.2.7.4-.4-.7 1.1-.2 3.2 1.3 2.1 1.4 4.4 2.6 5.1 2.6.7 0 1.3.4 1.3 1 0 .5.9 1 1.9 1 1.1 0 2.3.4 2.6 1 .3.5 1.7 1 3.1 1 1.3 0 2.4.4 2.4 1 0 .5 1.3 1 2.9 1 1.7 0 3.2.4 3.5.9.4.5 1.4.8 2.4.6.9-.1 2.2.1 2.7.5.6.5 2.5.7 4.3.6 1.7-.1 3.2.1 3.2.5 0 .3 4.8.4 10.8.2 13.8-.6 15.2-.7 15.2-1.3 0-.3.8-.7 1.8-.8 3.4-.3 5.8-.8 6.7-1.4.6-.3 2.5-.9 4.3-1.3 1.7-.3 3.2-1 3.2-1.5s.9-.7 2-.5c1.1.2 2 0 2-.6 0-.5.5-.9 1.1-.9.6 0 1.7-.7 2.5-1.5s2.2-1.1 3.1-.8c1 .4 1.4.2 1-.4-.4-.6.3-1.3 1.6-1.7 1.2-.3 3.8-1.9 5.7-3.6 1.9-1.6 4.1-3 4.8-3 .6 0 1.2-.4 1.2-.9s1.5-1.8 3.3-3c1.7-1.1 2.9-2.1 2.6-2.1-.3 0 2.2-2.8 5.6-6.3 6.4-6.4 13-14.7 10.7-13.3-1 .6-1.3.3-1.1-1 .1-1.1-.2-2.8-.6-3.9-1.1-2.7-18.7-20.5-19.7-19.9-.4.3-.8-.2-.8-1 0-.9-.7-1.6-1.5-1.6-.9 0-1.8-.7-2.1-1.5-.4-.8-1-1.5-1.5-1.5s-3.2-1.5-6.1-3.3c-2.9-1.8-6.4-3.8-7.8-4.4-6.6-2.8-8.6-3.7-9.2-3.9-.5-.1-.9-.2-1-.4-.4-.2-2.9-.9-6.3-1.6-1.6-.3-3.7-.8-4.5-1.1-.8-.3-3.3-.7-5.5-.9-5.4-.5-6.8-.8-8.4-1.8-.9-.6-1.2-.5-.8.1.4.6-1.5.9-5.1.8-3.1-.1-6.1 0-6.7.3-.5.3-2.5.7-4.5.9-1.9.2-4.7.4-6.2.5-1.6.2-2.8.6-2.8 1 0 .5-.9.8-2 .8-1.2 0-3.4.7-5 1.5-1.7.9-3 1.3-3 1 0-1.3-18.9 9.4-22.4 12.7-3.4 3.3-3.7 4-2.5 5.5 1.1 1.4 1.1 1.5 0 .9-1-.7-1.2-.3-.6 1.5 2.2 7 8.8 7.7 17.5 1.8 3-2.1 5.8-3.5 6.2-3.3.5.3.8.1.8-.4s1-1.3 2.3-1.7l2.7-.9c4-1.8 6.4-2.6 7.6-2.6.8 0 1.4-.4 1.4-.8 0-.5 1-.8 2.3-.7 1.2.1 2.8-.3 3.6-.9 1.2-.9 1.3-.8.6.4-.8 1.3-.6 1.3.8.2 1.1-1 4.4-1.3 11.6-1 6.1.2 10.3-.1 10.5-.7.3-.6.5-.4.5.3.1.7.6 1 1.1.7.6-.3 1-.2 1 .2 0 .5 1.6 1 3.7 1.1 2 .2 4.1.6 4.7 1 .6.3 1.6.7 2.2.8.6.1 3.9 1.6 7.5 3.3 3.5 1.7 6.8 3 7.2 3 .5 0 1.7.9 2.6 2 1 1.2 2.2 2.1 2.7 2.1s2.8 1.8 5.2 4c2.3 2.2 4.2 3.8 4.2 3.6 0-.3 1.3.7 2.8 2.2 1.5 1.5 2.6 3 2.4 3.4-.2.5.4.8 1.2.8 2.5 0 1.4 2-3.8 6.9-2.7 2.5-5.7 5.4-6.8 6.3-1 1-2.2 1.8-2.7 1.8-.6 0-1.6.8-2.3 1.9-.7 1-1.7 2-2.3 2.1-2.5.7-5.5 2.4-5.5 3.2 0 .4-.3.7-.7.6-.5 0-3 1-5.8 2.3-2.7 1.3-5.8 2.4-6.7 2.5-1 .1-2 .3-2.3.4-.3.1-.9.4-1.5.5-.5.1-1.1.3-1.2.5-.2.1-1.6.4-3.2.6-1.6.3-3.8 1-4.8 1.5-1.2.7-1.8.6-1.8-.1s-.5-.8-1.2-.3c-1.7 1-16.1 1-16.9 0-.3-.4-2.2-.9-4.2-1-2.1-.1-3.7-.5-3.7-1 0-.4-1.3-.7-3-.7-1.6 0-3-.5-3-1.1 0-.5-.4-.8-.8-.5-.5.3-2.1-.2-3.6-1-1.6-.7-3.5-1.4-4.3-1.4-.8 0-1.1-.5-.8-1 .3-.6-.1-1-1-1-1.6 0-5-1.7-7.1-3.5-.6-.6-2.6-2.1-4.5-3.5-3.4-2.4-16.9-15.7-20.1-19.8-1-1.2-1.8-2.7-1.8-3.4 0-.6-.3-.8-.7-.5-.3.4-1.8-1-3.2-3.1-1.4-2-3.3-4.6-4.3-5.6-1-1.1-1.8-2.6-1.8-3.3 0-.8-.4-1.1-1-.8-.5.3-1-.1-1-.9 0-.9-.4-1.6-1-1.6-.5 0-1-.6-1-1.4 0-.8-.4-1.6-.8-1.8-1.7-.7-10.1-13.5-9.4-14.3.4-.5.2-.5-.4-.2-.6.3-2.1-1.2-3.4-3.6-1.3-2.3-2.9-4.7-3.4-5.3-.6-.6-2-2.2-3-3.7-1.1-1.4-2.3-2.4-2.8-2.1-.4.3-.8.1-.8-.5 0-1.4-3-1-6.2.8z"/></svg>